<svg xmlns="http://www.w3.org/2000/svg" viewBox="0 0 32 32" width="32" height="32">
  <circle cx="16" cy="16" r="14" fill="#09090b"/>
  <path d="M9.35 8.8H17.67Q19.76 8.8 20.87 9.83Q21.99 10.86 21.99 12.39Q21.99 13.66 21.19 14.58Q20.66 15.18 19.64 15.54Q21.19 15.91 21.92 16.82Q22.65 17.73 22.65 19.1Q22.65 20.22 22.13 21.12Q21.61 22.01 20.71 22.53Q20.15 22.86 19.02 23Q17.52 23.2 17.03 23.2H9.35ZM13.83 14.45H15.77Q16.81 14.45 17.22 14.09Q17.63 13.73 17.63 13.05Q17.63 12.42 17.22 12.07Q16.81 11.72 15.8 11.72H13.83ZM13.83 20.11H16.1Q17.25 20.11 17.72 19.7Q18.2 19.29 18.2 18.6Q18.2 17.96 17.73 17.58Q17.26 17.19 16.09 17.19H13.83Z" fill="#fff"/>
</svg>
